<svg width="80" height="80" viewBox="0 0 80 80" fill="none" xmlns="http://www.w3.org/2000/svg">
<g clip-path="url(#clip0)">
<circle cx="16" cy="4" r="2" fill="#E1E4E8"/>
<circle cx="28" cy="4" r="2" fill="#E1E4E8"/>
<circle cx="40" cy="4" r="2" fill="#E1E4E8"/>
<circle cx="52" cy="4" r="2" fill="#E1E4E8"/>
<circle cx="64" cy="4" r="2" fill="#E1E4E8"/>
<circle cx="16" cy="16" r="2" fill="#E1E4E8"/>
<circle cx="28" cy="16" r="2" fill="#E1E4E8"/>
<circle cx="40" cy="16" r="2" fill="#E1E4E8"/>
<circle cx="52" cy="16" r="2" fill="#E1E4E8"/>
<circle cx="64" cy="16" r="2" fill="#E1E4E8"/>
<circle cx="16" cy="28" r="2" fill="#E1E4E8"/>
<circle cx="28" cy="28" r="2" fill="#E1E4E8"/>
<circle cx="40" cy="28" r="2" fill="#E1E4E8"/>
<circle cx="52" cy="28" r="2" fill="#E1E4E8"/>
<circle cx="64" cy="28" r="2" fill="#E1E4E8"/>
<circle cx="4" cy="4" r="2" fill="#E1E4E8"/>
<circle cx="4" cy="16" r="2" fill="#E1E4E8"/>
<circle cx="4" cy="28" r="2" fill="#E1E4E8"/>
<circle cx="16" cy="40" r="2" fill="#E1E4E8"/>
<circle cx="28" cy="40" r="2" fill="#E1E4E8"/>
<circle cx="40" cy="40" r="2" fill="#E1E4E8"/>
<circle cx="52" cy="40" r="2" fill="#E1E4E8"/>
<circle cx="64" cy="40" r="2" fill="#E1E4E8"/>
<circle cx="4" cy="40" r="2" fill="#E1E4E8"/>
<circle cx="16" cy="52" r="2" fill="#E1E4E8"/>
<circle cx="28" cy="52" r="2" fill="#E1E4E8"/>
<circle cx="40" cy="52" r="2" fill="#E1E4E8"/>
<circle cx="52" cy="52" r="2" fill="#E1E4E8"/>
<circle cx="64" cy="52" r="2" fill="#E1E4E8"/>
<circle cx="4" cy="52" r="2" fill="#E1E4E8"/>
<circle cx="16" cy="64" r="2" fill="#E1E4E8"/>
<circle cx="28" cy="64" r="2" fill="#E1E4E8"/>
<circle cx="40" cy="64" r="2" fill="#E1E4E8"/>
<circle cx="52" cy="64" r="2" fill="#E1E4E8"/>
<circle cx="64" cy="64" r="2" fill="#E1E4E8"/>
<circle cx="4" cy="64" r="2" fill="#E1E4E8"/>
<circle cx="16" cy="76" r="2" fill="#E1E4E8"/>
<circle cx="28" cy="76" r="2" fill="#E1E4E8"/>
<circle cx="40" cy="76" r="2" fill="#E1E4E8"/>
<circle cx="52" cy="76" r="2" fill="#E1E4E8"/>
<circle cx="64" cy="76" r="2" fill="#E1E4E8"/>
<circle cx="4" cy="76" r="2" fill="#E1E4E8"/>
<circle cx="76" cy="4" r="2" fill="#E1E4E8"/>
<circle cx="76" cy="16" r="2" fill="#E1E4E8"/>
<circle cx="76" cy="28" r="2" fill="#E1E4E8"/>
<circle cx="76" cy="40" r="2" fill="#E1E4E8"/>
<circle cx="76" cy="52" r="2" fill="#E1E4E8"/>
<circle cx="76" cy="64" r="2" fill="#E1E4E8"/>
<circle cx="76" cy="76" r="2" fill="#E1E4E8"/>
</g>
<defs>
<clipPath id="clip0">
<rect width="80" height="80" fill="white"/>
</clipPath>
</defs>
</svg>