<?xml version="1.0"?>
<svg xmlns="http://www.w3.org/2000/svg" xmlns:xlink="http://www.w3.org/1999/xlink" version="1.1" id="Capa_1" x="0px" y="0px" viewBox="0 0 512 512" style="enable-background:new 0 0 512 512;" xml:space="preserve" width="512px" height="512px" class="hovered-paths"><g transform="matrix(0.489695, 0, 0, 0.489695, 130.638, 130.638)"><g>
	<g>
		<g>
			<path d="M352,277.333c5.896,0,10.667-4.771,10.667-10.667V96c0-2.954-1.201-5.624-3.138-7.555L274.221,3.138     C272.29,1.201,269.621,0,266.667,0h-160C83.146,0,64,19.135,64,42.667v320c0,23.531,19.146,42.667,42.667,42.667H160     c5.896,0,10.667-4.771,10.667-10.667v-85.333c0-17.646,14.354-32,32-32H352z M277.333,36.417l48.917,48.917h-27.583     c-11.771,0-21.333-9.573-21.333-21.333V36.417z" data-original="#000000" class="hovered-path active-path" data-old_color="#000000" fill="#FFFFFF"/>
			<circle cx="298.667" cy="362.667" r="21.333" data-original="#000000" class="hovered-path active-path" data-old_color="#000000" fill="#FFFFFF"/>
			<path d="M437.333,298.667H202.667c-5.896,0-10.667,4.771-10.667,10.667v192c0,5.896,4.771,10.667,10.667,10.667h234.667     c5.896,0,10.667-4.771,10.667-10.667v-192C448,303.438,443.229,298.667,437.333,298.667z M426.667,422.25l-56.458-56.458     c-4.167-4.167-10.917-4.167-15.083,0l-33.833,33.833c-4.167,4.167-4.167,10.917,0,15.083l10.667,10.667     c2.01,2.021,3.125,4.698,3.125,7.542s-1.115,5.521-3.125,7.542c-4.042,4.021-11.042,4.021-15.083,0l-42.667-42.667     c-4.167-4.167-10.917-4.167-15.083,0l-45.792,45.792V320h213.333V422.25z" data-original="#000000" class="hovered-path active-path" data-old_color="#000000" fill="#FFFFFF"/>
		</g>
	</g>
</g></g> </svg>
